<svg width="515" height="530" viewBox="0 0 515 530" fill="none" xmlns="http://www.w3.org/2000/svg">
<path d="M400.873 213.297C429.451 296.014 386.643 383.264 304.528 409.481C224.71 434.964 141.132 393.333 114.441 314.31C84.6127 226.001 137.208 136.274 224.545 116.982C302.892 99.6749 375.16 143.119 400.873 213.297ZM182.921 337.558C183.872 339.315 184.658 341.19 185.813 342.8C187.656 345.368 187.583 347.147 185.183 349.642C178.44 356.653 180.674 365.09 190.409 369.154C191.386 363.917 194.92 361.433 199.899 360.333C204.66 359.281 209.199 360.426 213.731 361.308C228.89 364.259 242.915 362.199 255.191 352.274C257.67 350.269 259.322 351.291 261.292 352.843C267.566 357.783 274.676 360.716 282.562 362.148C291.187 363.714 299.459 361.496 307.834 360.44C317.552 359.215 321.185 360.771 326.258 369.084C335.636 364.53 337.385 356.601 330.424 349.103C328.578 347.114 328.386 345.657 329.776 343.475C332.923 338.532 335.231 333.198 336.822 327.542C340.311 315.143 337.987 303.825 330.413 293.57C328.412 290.861 326.667 288.29 326.183 284.777C325.625 280.729 323.132 276.528 319.066 276.885C308.725 277.794 301.613 270.404 292.674 267.944C291.305 267.567 289.78 267.028 289.031 265.121C291.393 261.682 294.474 258.92 298.403 256.864C299.023 257.735 299.498 258.224 299.767 258.808C301.979 263.606 305.942 264.687 310.592 263.537C314.398 262.595 316.267 259.645 316.731 255.862C317.334 250.933 315.26 247.482 310.715 245.516C309.371 244.935 307.778 244.776 306.916 243.099C307.146 242.091 307.387 240.962 307.662 239.841C312.249 221.188 301.917 203.626 283.331 199.288C278.52 198.165 275.138 197.119 275.91 191.221C276.105 189.735 275.197 187.975 274.451 186.516C270.323 178.447 263.349 172.62 257.885 164.487C250.449 175.684 238.385 182.941 239.245 197.858C227.765 199.088 218.514 203.666 212.189 213.248C205.855 222.844 206.017 233.242 208.901 244.082C202.911 245.616 198.444 248.462 198.624 254.897C198.729 258.675 200.37 262.175 204.461 263.397C210.57 265.223 214.817 262.751 217.23 256.537C221.299 259.216 224.308 262.063 227.212 265.855C218.885 269.721 211.085 273.37 203.247 276.934C202.559 277.247 201.609 277.08 200.794 277.002C194.118 276.364 190.512 279.042 189.434 285.673C189.113 287.644 189.107 289.589 187.676 291.252C175.593 305.289 175.176 320.66 182.921 337.558Z" fill="#32324D"/>
<path d="M322.956 462.295C319.799 460.944 321.383 459.831 322.912 458.985C325.533 457.536 328.274 456.306 330.924 454.906C333.609 453.487 335.338 455.191 337.107 456.707C345.58 463.967 354.028 471.257 362.499 478.521C364.23 480.005 366.023 481.418 368.648 483.57C367.421 471.788 366.311 461.115 365.198 450.442C365.043 448.953 364.615 447.439 364.766 445.984C365.03 443.426 363.085 440.718 365.221 438.314C366.692 436.659 375.715 433.078 378.409 433.122C378.27 433.772 378.336 434.727 377.985 434.918C373.003 437.636 375.047 440.775 377.027 444.333C383.252 455.524 389.246 466.843 395.121 477.725C397.591 478.982 399.696 476.079 401.658 478.101C399.822 481.336 388.181 487.368 383.744 487.427C382.952 486.244 383.777 485.464 384.582 484.951C387.314 483.209 386.577 481.214 385.313 478.975C380.328 470.144 375.404 461.278 369.803 452.557C371.015 464.639 372.224 476.72 373.44 488.801C373.651 490.892 374.585 493.088 371.953 494.517C369.179 496.024 367.594 494.068 365.84 492.619C356.352 484.781 346.885 476.918 336.611 469.534C340.819 478.947 345.024 488.36 349.237 497.77C349.982 499.433 351.309 499.734 352.97 499.392C354.391 499.099 355.938 498.486 357.359 500.928C353.072 504.567 348.085 506.65 342.496 508.302C342.326 507.115 342.031 506.395 342.225 506.22C346.904 502.009 344.677 497.799 342.559 493.325C338.216 484.146 334.037 474.885 330.031 465.555C328.605 462.234 326.879 460.632 322.956 462.295Z" fill="#32324D"/>
<path d="M377.595 77.676C380.373 71.1147 383.001 64.9032 385.629 58.6917C385.342 58.4985 385.055 58.3052 384.767 58.112C377.442 65.0624 370.115 72.012 362.791 78.9641C361.583 80.1104 360.387 81.2682 359.184 82.4201C357.778 83.7678 356.342 84.63 354.297 83.5153C352.477 82.5234 352.424 81.0241 352.494 79.273C352.926 68.4642 353.312 57.6536 353.692 46.8428C353.75 45.2139 353.7 43.5813 352.861 41.644C348.193 50.3514 343.528 59.0606 338.854 67.7649C338.008 69.3405 338.496 70.5815 339.626 71.816C340.574 72.8523 342.094 73.7174 341.08 76.2035C335.673 75.0707 331.052 72.4623 326.642 69.2212C327.17 68.388 327.385 67.8616 327.507 67.8823C333.923 68.9602 335.844 64.3269 338.142 59.8375C341.933 52.4299 346.035 45.1817 349.941 37.8321C352.178 33.6226 356.229 29.3761 349.367 25.1912C356.118 23.5529 363.48 28.9016 363.206 34.7215C362.69 45.6812 361.913 56.6283 361.35 67.5861C361.261 69.3157 360.71 71.2075 361.91 72.845C363.774 72.9524 364.544 71.4668 365.575 70.493C373.563 62.946 381.621 55.4681 389.41 47.7196C392.127 45.0165 394.517 44.4601 397.669 46.5734C400.394 48.4003 404.132 48.7871 407.218 53.562C397.353 49.4602 397.307 56.6931 395.191 61.1246C391.606 68.6322 388.313 76.2789 384.9 83.8685C381.707 90.9678 381.709 90.9686 385.464 97.8522C378.054 96.0834 372.461 92.6161 366.567 88.3825C375.397 89.752 374.996 82.4953 377.595 77.676Z" fill="#32324D"/>
<path d="M233.382 468.864C240.674 467.126 247.75 467.385 254.957 468.491C254.699 469.546 254.653 470.123 254.542 470.135C247.795 470.897 248.458 475.902 248.41 480.616C248.275 494.012 247.635 491.424 259.097 491.682C263.092 491.772 267.092 491.639 271.087 491.722C273.823 491.779 275.069 490.562 275.032 487.844C275.01 486.181 275.079 484.511 275.216 482.853C275.668 477.391 277.831 471.168 268.736 470.383C272.007 467.125 286.688 466.942 290.805 469.616C290.699 469.917 290.624 470.454 290.467 470.479C284.657 471.411 284.098 475.288 284.273 480.282C284.594 489.429 284.331 498.597 284.314 507.756C284.298 515.761 284.3 515.761 291.243 520.73C283.204 521.873 276.041 521.318 268.803 521.192C268.876 520.087 268.846 519.506 268.925 519.491C276.519 518.011 274.787 512.078 274.833 507.061C274.931 496.541 274.902 496.5 264.595 495.773C260.945 495.516 257.263 495.678 253.623 495.349C249.334 494.961 248.021 496.891 248.276 500.906C248.518 504.721 248.475 508.571 248.278 512.391C248.112 515.623 248.638 517.976 252.517 518.182C253.458 518.232 254.459 518.749 254.497 520.806C247.229 521.623 239.991 521.779 232.547 520.628C232.847 519.563 232.902 519.001 233.025 518.985C240.003 518.1 238.814 512.824 238.899 508.19C239.082 498.371 239.257 488.552 239.551 478.736C239.669 474.781 240.211 470.785 234.385 470.664C233.988 470.656 233.61 469.739 233.382 468.864Z" fill="#32324D"/>
<path d="M284.026 39.0303C284.05 41.689 284.032 43.8545 284.098 46.0174C284.254 51.1793 282.21 57.341 290.454 59.3165C282.915 60.1166 275.893 61.873 268.615 60.088C268.893 59.0775 268.934 58.5159 269.071 58.4916C274.292 57.5625 275.314 54.1735 274.811 49.4635C274.442 46.0042 274.66 42.4781 274.686 38.9823C274.705 36.472 273.523 35.3474 271.034 35.3696C265.041 35.4232 259.048 35.4065 253.054 35.4471C249.97 35.468 248.504 36.8998 248.767 40.1379C248.995 42.9531 248.877 45.7946 248.979 48.622C249.14 53.0466 247.213 58.6585 255.469 58.2678C252.129 61.678 238.015 62.1946 233.565 59.7895C233.618 59.4741 233.64 58.8964 233.74 58.8826C240.447 57.9532 239.805 53.0657 239.727 48.2285C239.568 38.4079 239.5 28.58 239.715 18.762C239.801 14.8075 239.328 11.8918 234.608 11.584C234.108 11.5514 233.655 10.8081 232.321 9.64504C240.332 7.89201 247.375 8.86283 254.994 9.68369C246.024 11.907 248.417 18.5198 248.398 23.9585C248.371 31.6915 248.462 31.6918 255.927 31.6906C259.923 31.6899 263.919 31.6968 267.915 31.6869C274.655 31.6703 274.655 31.6658 274.67 25.1635C274.671 24.6641 274.723 24.1574 274.659 23.6662C273.982 18.4757 277.912 11.2255 267.626 9.9074C275.517 8.2877 282.535 8.66265 289.621 8.70251C289.56 9.82957 289.586 10.4146 289.52 10.4252C283.455 11.3992 282.977 15.5593 283.354 20.5808C283.803 26.5489 283.819 32.5494 284.026 39.0303Z" fill="#32324D"/>
<path d="M46.2822 338.221C52.2134 335.87 57.7592 333.591 63.3829 331.524C66.7262 330.296 69.8007 329.192 67.8987 324.591C67.6037 323.877 67.9468 322.932 69.7262 322.395C73.4884 328.661 75.7673 335.611 77.7816 342.487C76.6059 343.334 75.6596 343.505 75.4217 342.937C73.0645 337.306 69.3045 338.839 65.36 340.798C62.0141 342.46 58.1176 342.992 54.4994 345.974C62.6319 349.802 70.2251 353.376 77.5244 356.811C80.005 355.83 77.8697 352.663 81.3662 352.256C84.1241 356.712 86.3614 361.69 86.5707 367.806C77.8811 359.648 66.5302 357.15 55.9247 351.173C51.4102 365.138 41.6201 376.208 41.5874 391.129C41.0047 391.24 40.422 391.35 39.8392 391.461C37.0503 384.266 34.2613 377.072 31.5655 370.118C33.4832 368.874 34.2214 369.129 34.9347 369.661C35.4403 370.037 35.9541 370.403 37.0106 371.171C40.5652 363.753 43.9787 356.629 47.9695 348.3C41.2916 349.77 36.1664 351.832 31.3219 354.437C28.4595 355.976 32.1302 359.549 29.017 362.432C25.3843 355.45 22.7689 348.618 21.2544 341.355C27.3049 347.824 32.8926 343.334 38.4648 341.232C40.9568 340.291 43.4416 339.332 46.2822 338.221Z" fill="#32324D"/>
<path d="M488.018 374.918C486.591 377.883 486.153 380.949 482.993 384.312C483.872 374.25 476.178 374.787 471.137 372.564C462.925 368.944 454.401 366.036 446.116 362.57C442.405 361.017 439.249 359.912 437.303 364.792C437.132 365.222 436.261 365.374 435.869 365.576C434.13 364.745 434.416 363.544 434.851 362.455C438.055 354.425 440.982 346.263 444.63 338.439C448.285 330.599 454.084 327.992 461.195 330.1C468.283 332.201 470.961 337.569 471.536 345.31C477.993 339.577 484.709 340.733 491.393 343.453C495.708 345.21 498.456 344.388 499.496 339.56C499.614 339.01 500.224 338.566 501.145 337.379C503.268 341.858 501.824 345.281 499.944 348.458C497.81 352.062 494.483 353.85 490.231 352.968C487.802 352.464 485.468 351.498 483.096 350.726C473.633 347.646 469.222 350.257 466.995 360.753C472.561 362.978 478.228 365.251 483.901 367.508C487.356 368.881 487.885 364.551 490.811 363.951C492.115 368.14 488.875 371.077 488.018 374.918ZM465.561 351.929C465.974 344.017 462.913 340.005 455.407 338.619C450.353 337.686 446.231 341.414 444.259 348.429C442.772 353.72 447.589 352.717 449.86 354.062C451.973 355.313 454.448 355.961 456.781 356.829C463.207 359.218 463.21 359.209 465.561 351.929Z" fill="#32324D"/>
<path d="M472.422 207.561C466.123 209.386 464.416 212.961 467.699 219.122C462.957 217.264 461.604 213.718 460.854 209.933C460.005 205.65 461.927 202.428 465.616 200.377C468.37 198.846 471.346 197.719 474.154 196.278C476.248 195.203 478.132 193.781 479.059 191.497C480.524 187.887 479.461 184.356 477.464 181.553C475.321 178.545 472.681 181.552 470.324 182.164C468.406 182.662 466.592 183.561 464.733 184.288C460.848 185.806 455.854 186.366 457.465 193.115C452.864 187.564 451.092 181.252 449.07 174.763C452.521 174.264 452.283 177.493 454.839 178.365C467.256 173.514 480.237 168.434 493.226 163.376C495.292 162.572 496.016 161.231 495.344 159.07C494.963 157.842 494.378 156.468 496.04 155.575C497.598 155.309 497.993 156.444 498.412 157.55C501.409 165.473 504.728 173.294 507.308 181.351C509.63 188.601 507.684 193.772 502.437 197.128C496.868 200.69 490.854 199.998 485.115 195.15C484.758 194.849 484.33 194.631 483.578 194.143C482.587 200.858 478.669 204.985 472.422 207.561ZM498.063 188.656C503.527 184.722 504.313 180.512 501.065 174.018C499.983 171.853 498.846 170.97 496.414 171.982C492.124 173.766 487.767 175.396 483.402 176.989C481.05 177.848 480.344 179.103 481.409 181.531C484.152 187.784 488.927 193.252 498.063 188.656Z" fill="#32324D"/>
<path d="M62.9872 199.911C60.7183 205.522 58.5957 210.782 56.4004 216.223C55.2638 215.427 54.7426 215.192 54.7676 215.062C56.15 207.835 50.5192 207.055 45.8866 205.29C37.954 202.267 30.0356 199.206 22.1353 196.1C14.6759 193.167 14.6896 193.132 9.65749 197.845C8.17995 195 12.8729 181.419 16.6043 177.743C16.8984 177.882 17.4603 178.086 17.4438 178.158C15.685 185.887 22.0288 186.166 26.5598 188.038C28.84 188.98 31.2077 189.711 34.6304 190.926C32.0502 182.13 28.3841 174.814 25.5527 167.513C23.317 166.261 22.517 169.263 19.9368 168.145C20.3505 162.848 22.6687 158.179 25.9967 153.614C27.243 165.093 33.5368 174.411 37.287 185.426C48.0833 180.739 58.4166 176.292 68.7073 171.748C70.3253 171.033 70.6113 169.087 71.5449 167.732C72.1652 166.832 73.0053 166.225 74.0522 166.801C74.5105 167.053 75.0527 167.986 74.9105 168.372C72.4432 175.064 70.7129 182.099 66.9072 187.984C64.1215 187.452 65.275 185.138 63.5059 183.952C56.5024 186.77 49.2015 189.708 41.9005 192.645C41.8791 193.076 41.8578 193.506 41.8365 193.936C46.732 195.799 51.5711 197.835 56.5426 199.467C60.0054 200.603 59.9555 195.817 62.486 195.232C65.0254 196.469 63.4048 198.097 62.9872 199.911Z" fill="#32324D"/>
<path d="M100.022 435.005C89.5575 424.876 93.4741 425.879 80.5381 431.224C79.3315 431.723 78.1943 432.389 77.1348 432.922C76.3501 435.59 79.3641 437.266 78.4303 439.727C74.7505 439.911 67.6559 433.46 66.0225 428.371C66.4189 428.158 67.0103 427.633 67.223 427.758C72.9806 431.117 77.6785 427.466 82.5371 425.396C93.5526 420.701 104.491 415.827 115.493 411.1C117.658 410.171 119.891 408.179 122.319 410.641C124.542 412.894 122.779 415.039 121.95 417.07C116.738 429.849 111.585 442.657 106.072 455.308C104.199 459.606 103.044 463.503 106.463 468.056C99.5359 463.956 94.4167 458.927 89.8711 453.055C92.7704 450.924 93.8802 454.336 96.5016 453.631C98.3053 449.48 100.27 444.942 102.248 440.41C103.286 438.034 101.661 436.695 100.022 435.005ZM100.875 422.314C99.4723 423.114 97.6733 423.327 96.6172 425.436C99.0271 428.103 101.434 430.939 105.022 433.418C107.501 428.543 109.586 423.889 111.3 418C107.357 419.633 104.455 420.835 100.875 422.314Z" fill="#32324D"/>
<path d="M157.975 495.806C159.99 498.722 162.694 500.086 165.522 501.084C169.481 502.482 173.153 501.874 175.859 498.4C178.483 495.031 178.738 491.336 176.449 487.697C174.131 484.011 170.952 481.027 167.994 477.865C165.259 474.941 162.544 471.925 161.735 467.828C159.658 457.315 168.28 449.02 179.28 450.984C185.101 452.024 190.235 454.788 195.351 457.639C198.455 459.369 199.482 461.433 197.393 464.441C195.883 466.615 196.215 471.289 192.848 470.648C189.107 469.937 191.901 466.108 191.853 463.764C191.748 458.602 187.663 457.782 184.352 456.257C180.381 454.427 176.48 454.843 173.424 458.301C170.698 461.387 170.38 464.929 172.39 468.491C174.969 473.065 179.354 476.068 182.725 479.963C186.753 484.617 189.233 489.665 186.774 495.948C184.48 501.811 180.19 504.994 173.884 505.337C164.162 505.865 156.502 501.619 150.075 494.772C148.051 492.617 147.018 489.909 148.037 486.934C148.981 484.177 151.236 483.162 153.994 483.514C156.698 483.859 156.079 486.067 156.068 487.821C156.052 490.515 156.174 493.161 157.975 495.806Z" fill="#32324D"/>
<path d="M115.639 114.669C116.799 112.567 116.488 111.218 114.536 110.312C110.914 108.629 107.311 106.902 103.693 105.21C102.768 104.778 101.746 104.392 100.894 105.23C97.5744 108.495 94.2771 111.785 91.0332 115.125C90.2381 115.944 90.5841 117.003 90.9923 117.948C92.763 122.049 94.5405 126.147 96.1902 129.957C99.0418 130.611 100.718 127.3 103.895 129.425C101.127 134.46 96.8063 137.809 92.1988 141.615C91.6097 140.355 90.9679 139.566 91.1451 139.274C94.188 134.267 91.3589 130.006 89.4946 125.644C84.7187 114.47 79.8614 103.33 75.1433 92.1312C74.2931 90.1132 72.625 87.888 74.9556 85.7172C77.0441 83.7718 79.0851 85.2794 80.9815 86.0596C90.8338 90.1127 100.55 94.5125 110.496 98.3161C116.808 100.73 122.696 106.369 129.989 101.541C131.326 103.34 130.35 104.227 129.573 105.017C126.07 108.579 122.58 112.161 118.925 115.562C117.934 116.485 115.943 119.207 115.639 114.669ZM83.7203 101.121C85.1025 104.424 86.1222 107.905 88.413 111.069C91.7464 108.853 94.3334 106.288 96.762 102.618C92.1322 100.264 87.8697 98.0554 83.1115 97.0065C82.244 98.4591 83.3541 99.4023 83.7203 101.121Z" fill="#32324D"/>
<path d="M178.989 77.2312C173.727 79.722 168.566 80.848 163.137 80.3086C159.419 79.9393 156.788 78.1942 156.831 74.0298C156.849 72.2913 157.707 70.7387 159.248 69.8983C161.001 68.9421 161.932 70.5398 163.017 71.4992C168.306 76.1782 172.833 76.9098 178.457 73.9471C182.369 71.8864 184.446 68.7885 183.852 64.2069C183.275 59.7539 180.499 57.509 176.318 56.7493C171.198 55.8189 166.024 56.4812 160.876 56.3495C153.028 56.1488 148.486 53.1399 146.341 46.5829C144.337 40.4588 146.545 34.6473 152.619 30.1151C157.384 26.5602 162.948 24.8234 168.544 23.1702C169.876 22.7767 171.331 22.5372 172.095 23.9871C173.411 26.4814 174.54 29.0767 175.69 31.6548C176.054 32.4692 175.934 33.343 175.119 33.8466C174.363 34.3135 173.509 34.2531 172.791 33.6873C172.271 33.2782 171.816 32.7868 171.342 32.3211C166.049 27.1143 157.841 28.4001 154.231 35.0035C151.217 40.5156 154.922 47.0136 161.672 47.5435C166.137 47.894 170.653 47.5807 175.147 47.5995C183.644 47.6351 188.084 50.4302 190.298 57.0989C192.248 62.9719 189.778 69.7379 183.973 74.1482C182.523 75.2495 180.89 76.1096 178.989 77.2312Z" fill="#32324D"/>
<path d="M451.491 434.457C447.959 438.013 445.603 442.317 441.375 444.757C440.817 443.944 440.416 443.533 440.483 443.432C444.08 438.004 440.658 435.045 436.803 431.812C429.671 425.833 422.831 419.507 415.838 413.362C410.004 408.236 409.984 408.259 403.485 410.748C403.223 407.02 413.319 395.155 417.741 393.996C417.921 394.264 418.309 394.687 418.239 394.786C414.671 399.823 417.49 402.664 421.375 405.891C429.554 412.685 437.428 419.857 445.238 427.079C448.051 429.68 450.436 430.994 453.5 427.694C453.845 427.322 454.683 427.407 455.563 427.225C456.409 430.967 453.126 432.073 451.491 434.457Z" fill="#32324D"/>
<path d="M451.716 110.733C445.36 116.369 439.26 121.758 433.187 127.18C429.555 130.422 423.425 132.781 429.133 140.118C422.391 135.501 417.862 130.001 413.118 123.836C416.8 122.462 417.782 125.294 420.406 126.055C425.041 121.996 430.01 117.669 434.953 113.312C439.565 109.247 444.012 104.98 448.794 101.128C451.869 98.6511 453.928 96.4116 450.934 92.5807C450.632 92.1938 450.893 91.3659 450.893 89.1001C457.312 94.7448 461.995 100.095 466.295 106.233C462.468 108.171 460.984 102.531 457.919 105.175C455.907 106.911 453.96 108.722 451.716 110.733Z" fill="#32324D"/>
<path d="M497.324 271.934C496.599 276.43 494.094 278.577 490.044 278.057C486.475 277.599 484.629 275.095 484.671 271.437C484.711 267.903 486.755 265.768 490.054 265.382C494.391 264.873 496.907 267.103 497.324 271.934Z" fill="#32324D"/>
<path d="M30.8065 278.145C26.7217 278.178 24.4836 276.292 23.8017 272.755C23.2472 269.878 24.2769 267.542 26.9127 266.07C30.1423 264.267 34.2501 265.532 35.8052 268.783C37.5698 272.471 35.975 275.703 30.8065 278.145Z" fill="#32324D"/>
<path d="M325.988 309.042C325.482 319.631 319.748 326.302 311.416 331.233C307.982 333.265 304.471 335.178 301.131 337.355C293.317 342.446 292.413 346.626 297.593 354.43C288.002 357.132 279.222 355.764 270.958 350.685C268.843 349.385 266.89 347.811 264.93 346.277C263.628 345.257 263.028 343.882 263.995 342.332C266.785 337.861 269.282 333.229 271.121 328.574C273.155 328.504 273.612 329.768 274.414 330.54C278.887 334.845 284.337 335.127 289.234 331.203C291.716 329.214 293.732 326.772 295.526 324.155C299.016 319.063 303.078 315.523 309.494 319.179C312.363 315.726 311.818 312.301 310.506 308.99C309.468 306.371 310.212 305.12 312.692 304.024C316.283 302.438 319.696 300.452 323.268 298.593C325.776 301.631 325.081 305.346 325.988 309.042Z" fill="#32324D"/>
<path d="M204.605 316.002C205.3 318.029 205.917 319.473 208.241 318.463C212.973 316.405 216.206 318.72 218.913 322.355C219.808 323.557 220.697 324.763 221.608 325.953C229.03 335.644 234.506 336.265 244.396 328.035C246.634 332.916 248.793 337.703 251.694 342.068C252.415 343.152 252.144 344.256 251.374 345.306C245.108 353.856 226.081 359.313 219.505 353.831C223.3 345.216 222.213 341.76 213.997 336.754C208.602 333.466 202.861 330.717 198.099 326.455C190.045 319.247 187.832 308.748 192.545 298.983C196.649 300.939 200.789 302.871 204.888 304.888C206.502 305.682 206.061 307.042 205.569 308.344C204.68 310.702 204.017 313.096 204.605 316.002Z" fill="#32324D"/>
<path d="M243.097 225.575C242.668 228.046 241.482 228.799 239.464 228.059C235.346 226.549 232.296 228.13 230.026 231.486C228.072 234.375 227.996 237.386 230.129 240.31C232.628 243.735 236.461 244.938 239.865 243.416C244.81 241.206 246.598 243.414 248.389 247.267C249.348 249.331 250.861 251.137 252.239 253.234C248.554 257.205 243.764 258.778 239.352 260.946C238.422 261.403 237.448 261.136 236.467 260.758C225.029 256.355 214.24 240.339 214.694 228.44C214.81 225.392 215.545 222.498 216.856 219.791C219.934 213.432 224.782 213.231 231.343 219.309C235.277 216.724 237.573 213.5 235.602 208.572C234.545 205.93 235.644 204.775 238.115 204.521C242.279 204.094 246.32 204.367 250.308 207.233C247.02 212.979 243.835 218.63 243.097 225.575Z" fill="#32324D"/>
<path d="M292.824 249.76C291.051 251.546 289.59 253.153 287.953 254.555C278.64 262.534 275.855 262.566 266.021 255.343C264.019 253.873 263.34 252.595 265.037 250.5C266.184 249.083 267.377 247.621 268.134 245.987C269.603 242.814 271.069 241.527 274.939 243.236C278.5 244.807 282.593 244.21 285.283 240.621C287.364 237.845 287.619 234.686 285.786 231.734C283.682 228.345 280.669 226.546 276.487 227.838C274.641 228.408 273.117 228.274 272.809 225.948C271.92 219.238 269.068 213.282 265.241 207.161C269.649 204.451 274.01 203.757 278.691 204.74C281.032 205.232 280.941 206.87 280.188 208.588C278.085 213.388 280.464 216.434 283.584 218.9C285.182 219.143 285.565 218.319 286.146 217.753C291.079 212.948 296.342 213.966 299.103 220.369C302.78 228.9 301.206 236.942 296.48 244.584C295.433 246.277 294.201 247.855 292.824 249.76Z" fill="#32324D"/>
<path d="M272.879 286.007C270.554 284.229 270.428 282.633 272.347 280.843C274.903 278.459 277.424 276.036 279.902 273.572C281.388 272.094 282.896 271.737 284.831 272.745C286.803 273.773 287.303 275.096 286.654 277.23C285.83 279.934 286.359 282.49 288.26 284.696C291.15 288.05 293.1 287.992 295.703 284.442C297.531 281.949 299.967 280.762 303.052 281.233C305.822 281.657 308.008 282.545 308.507 285.98C309.22 290.888 313.555 290.93 317.638 291.454C316.08 295.953 312.331 296.543 308.91 297.255C300.507 299.004 291.631 298.292 283.256 302.896C281.495 295.933 278.807 290.112 272.879 286.007Z" fill="#32324D"/>
<path d="M220.13 284.828C221.025 286.818 221.968 288.129 224.084 287.192C227.225 285.802 229.173 283.429 229.49 279.982C229.592 278.877 229.123 277.707 228.85 276.583C228.506 275.163 228.568 273.878 230.049 273.166C231.534 272.452 233.132 271.452 234.674 272.9C238.169 276.182 242.104 279.029 245.195 283.015C243.249 286.634 239.58 288.372 237.365 291.451C235.088 294.615 234.255 298.397 232.148 302.684C221.819 296.119 208.171 301.336 198.298 293.003C198.842 290.706 200.203 291.02 201.281 291.006C204.383 290.964 206.046 289.286 207.216 286.55C209.94 280.177 214.805 279.451 220.13 284.828Z" fill="#32324D"/>
<path d="M265.329 234.124C263.937 241.181 262.265 244.342 257.771 248.256C251.763 242.934 249.695 236.006 249.907 228.356C250.046 223.334 251.606 218.56 254.639 214.363C256.765 211.421 258.692 211.379 260.895 214.257C265.353 220.08 265.914 226.76 265.329 234.124Z" fill="#32324D"/>
<path d="M255.02 332.638C250.001 321.737 250.855 308.297 257.574 300.195C266.591 307.324 265.797 330.201 258.239 336.488C256.171 336.259 256.074 334.261 255.02 332.638Z" fill="#32324D"/>
<path d="M262.498 194.966C262.028 196.119 261.744 196.908 261.339 197.629C260.525 199.081 259.717 200.828 257.82 200.793C255.673 200.752 254.935 198.754 254.124 197.149C251.205 191.369 251.971 185.493 254.011 179.7C254.874 177.249 256.2 174.962 257.643 171.908C262.616 179.318 264.558 186.506 262.498 194.966Z" fill="#32324D"/>
<path d="M262.21 272.194C259.287 274.644 256.776 274.86 253.91 272.539C251.373 270.484 248.488 268.861 245.05 266.579C249.326 263.735 252.846 261.35 256.416 259.043C257.504 258.34 258.628 258.66 259.681 259.362C262.975 261.556 266.288 263.721 269.858 266.071C268.111 269.276 264.89 270.147 262.21 272.194Z" fill="#32324D"/>
</svg>
